<?xml version='1.0' encoding='utf-8'?>
<svg xmlns="http://www.w3.org/2000/svg" enable-background="new 0 0 20.3 152.95" version="1.1" viewBox="0 0 20.3 152.95">
<g clip-rule="evenodd" fill-rule="evenodd">
	<path d="m13.125 10.125l-2.125-2.925-0.05-7.2c0.377 0.151 0.744 0.276 1.1 0.375l0.125 0.05c0.387 0.125 0.712 0.217 0.975 0.275h0.05l-0.05 9.45-0.025-0.025z" fill="#1C1914"/>
	<path d="m13.125 10.125l-0.175 22.475-2-4.6 0.075-3.85c0.05-2.4 0.091-4.55 0.125-6.45 0.033-1.4 0-4.15-0.101-8.25-0.025-0.785-0.041-1.535-0.049-2.25l2.125 2.925z" fill="#24201B"/>
	<path d="m10.95 28l2 4.6c-0.145 9.828-0.395 20.777-0.75 32.85-0.812 27.743-1.319 45.269-1.525 52.575-0.202-0.043-0.41-0.118-0.625-0.226h-0.8c-0.133 0-0.3 0.05-0.5 0.15l-0.025 0.024c0.349-15.38 0.891-37.273 1.625-65.66 0.249-9.627 0.449-17.727 0.6-24.3z" fill="#443E31"/>
	<path d="m10.675 118.02c0.18 0.032 0.355 0.04 0.525 0.024 0.1 0.167 0.416 0.517 0.95 1.05 0.203 0.015 0.387 0.082 0.55 0.2 0.1 0.081 0.184 0.181 0.25 0.3-1.101-0.166-2.117-0.25-3.05-0.25-1.122 0-2.264 0.101-3.425 0.301h-0.025l0.05-0.04c0.133-0.133 0.367-0.25 0.7-0.35 0.039-0.03 0.081-0.063 0.125-0.1 0.208-0.19 0.467-0.524 0.775-1h0.05c0.178-0.01 0.37-0.068 0.575-0.176l0.025-0.024c0.2-0.101 0.367-0.15 0.5-0.15h0.8c0.215 0.11 0.423 0.18 0.625 0.22z" fill="#393329"/>
	<linearGradient id="c" x1="5.4502" x2="14.05" y1="122.3" y2="122.3" gradientUnits="userSpaceOnUse">
		<stop stop-color="#B29F79" offset="0"/>
		<stop stop-color="#756954" offset=".149"/>
		<stop stop-color="#494032" offset=".4902"/>
		<stop stop-color="#6B5F49" offset=".8275"/>
		<stop stop-color="#B29F79" offset="1"/>
	</linearGradient>
	<path d="m5.625 125h-0.025c0-0.178-0.017-0.328-0.05-0.45-0.012-0.049-0.029-0.099-0.05-0.149l0.35-0.601c0-0.166-0.117-0.366-0.35-0.6 0.033-0.167 0.15-0.334 0.35-0.5 0-0.233-0.133-0.467-0.4-0.7 0.433-0.366 0.5-0.717 0.2-1.05 0.033-0.2 0.184-0.367 0.45-0.5 0.128-0.16 0.253-0.428 0.375-0.8 1.161-0.2 2.303-0.301 3.425-0.301 0.933 0 1.95 0.084 3.05 0.25-0.066-0.119-0.15-0.219-0.25-0.3 0.216 0.162 0.399 0.412 0.55 0.75 0.267 0.667 0.517 1.066 0.75 1.2l-0.025 0.05c-0.12 0.235-0.179 0.46-0.175 0.675-4e-3 0.212 0.063 0.403 0.2 0.575 0 0.101-0.05 0.2-0.15 0.3-0.1 0.101-0.149 0.184-0.149 0.25 0 0.134 0.05 0.25 0.149 0.351 0.134 0.133 0.2 0.217 0.2 0.25-0.233 0.2-0.316 0.55-0.25 1.05 0.031 0.167 0.081 0.351 0.15 0.55h-0.025c-1.522-0.399-3.131-0.6-4.825-0.6-1.159-0.01-2.317 0.09-3.475 0.29z" fill="url(#c)"/>
		<radialGradient id="d" cx="11.45" cy="146.75" r="14.5" gradientTransform="matrix(1 0 0 -1.5845 0 379.27)" gradientUnits="userSpaceOnUse">
		<stop stop-color="#fff" offset="0"/>
		<stop stop-color="#FCFCF7" offset=".1451"/>
		<stop stop-color="#F5F3E2" offset=".3725"/>
		<stop stop-color="#EAE6C0" offset=".651"/>
		<stop stop-color="#DAD390" offset=".9647"/>
		<stop stop-color="#D8D08A" offset="1"/>
	</radialGradient>
	<path d="m13.975 121.3h0.025c-0.13 0.243-0.196 0.468-0.2 0.675-4e-3 -0.22 0.054-0.44 0.175-0.68zm-8.35 3.7c1.158-0.2 2.316-0.3 3.475-0.3 1.694 0 3.302 0.2 4.825 0.6 0.076 0.189 0.167 0.356 0.275 0.5-0.066 0.334-0.033 0.834 0.1 1.5 0.367 0.9 0.617 1.8 0.75 2.7 0.233 1.4 0.95 3.116 2.15 5.15 1.333 2.199 2.149 3.949 2.45 5.25 0.133 0.333 0.199 0.6 0.199 0.8v0.05c0.4 0.233 0.534 0.55 0.4 0.95-0.233 0.467-0.35 0.816-0.35 1.05 0 2.9-1.051 5.267-3.15 7.1-1.934 1.7-4.233 2.567-6.9 2.601-2.267-0.033-4.4-0.9-6.4-2.601-2.3-1.933-3.45-4.3-3.45-7.1 0-2.267 0.717-4.634 2.15-7.1 1.6-2.801 2.5-4.851 2.7-6.15l0.151-0.75c0.033-0.467 0.083-1.25 0.15-2.35l0.35-1.15c0.088-0.27 0.13-0.52 0.125-0.75z" fill="url(#d)"/>
</g>
</svg>