<svg width="1036.6548828125px" height="123.68000183105468px" xmlns="http://www.w3.org/2000/svg" viewBox="-268.32744140625005 13.159999084472659 1036.6548828125 123.68000183105468" style="background: rgba(0, 0, 0, 0);" preserveAspectRatio="xMidYMid"><defs><filter id="editing-metal-beveled"><feGaussianBlur stdDeviation="4" in="SourceAlpha" result="blur"></feGaussianBlur><feSpecularLighting surfaceScale="5" specularConstant="0.8" specularExponent="7.5" lighting-color="#fff" in="blur" result="specular"><fePointLight x="-250" y="-50" z="300"></fePointLight></feSpecularLighting><feComposite operator="in" in="specular" in2="SourceAlpha" result="comp"></feComposite><feComposite in="SourceGraphic" in2="comp" operator="arithmetic" k1="0" k2="1" k3="1" k4="0"></feComposite></filter></defs><g filter="url(#editing-metal-beveled)"><g transform="translate(-126.09255743026733, 107.00000762939453)"><path d="M2.94 5.57L2.94 5.57Q4.03 1.54 7.68-10.43L7.68-10.43L7.68-10.43Q11.58-23.04 16.51-39.62L16.51-39.62L16.51-39.62Q16.96-41.22 16.96-42.24L16.96-42.24L16.96-42.24Q16.96-43.71 16-43.71L16-43.71L16-43.71Q14.02-43.71 12.32-41.79L12.32-41.79L12.32-41.79Q10.62-39.87 9.60-37.18L9.60-37.18L9.60-37.18Q8.58-34.50 8.58-32.32L8.58-32.32L8.58-32.32Q8.58-31.04 8.90-30.08L8.90-30.08L8.90-30.08Q6.91-30.08 5.98-31.07L5.98-31.07L5.98-31.07Q5.06-32.06 5.06-33.73L5.06-33.73L5.06-33.73Q5.06-36.48 7.20-39.39L7.20-39.39L7.20-39.39Q9.34-42.30 12.38-44.19L12.38-44.19L12.38-44.19Q15.42-46.08 17.86-46.08L17.86-46.08L17.86-46.08Q20.22-46.08 21.66-43.42L21.66-43.42L21.66-43.42Q23.10-40.77 23.81-36.77L23.81-36.77L23.81-36.77Q24.51-32.77 25.28-26.11L25.28-26.11L25.28-26.11Q26.62-14.14 28.10-4.61L28.10-4.61L28.10-4.61Q28.93-10.05 31.07-18.37L31.07-18.37L31.07-18.37Q33.22-26.69 35.49-34.08L35.49-34.08L35.49-34.08Q37.76-41.47 38.40-42.94L38.40-42.94L38.40-42.94Q38.85-43.97 40-45.02L40-45.02L40-45.02Q41.15-46.08 42.43-46.08L42.43-46.08L42.43-46.08Q40.13-40 37.12-29.44L37.12-29.44L37.12-29.44Q34.11-18.88 31.94-8.99L31.94-8.99L31.94-8.99Q29.76 0.90 29.70 5.57L29.70 5.57L29.70 5.57Q27.65 5.57 26.43 4.38L26.43 4.38L26.43 4.38Q25.22 3.20 24.70 0.38L24.70 0.38L24.70 0.38Q23.87-4.10 21.98-16.67L21.98-16.67L21.98-16.67Q20.10-29.25 18.88-37.70L18.88-37.70L18.88-37.70Q12.93-16.26 10.56-8.45L10.56-8.45L10.56-8.45Q8.19-0.64 6.56 2.46L6.56 2.46L6.56 2.46Q4.93 5.57 2.94 5.57L2.94 5.57ZM44.03 3.01L44.03 3.01Q41.92 3.01 40.61 1.63L40.61 1.63L40.61 1.63Q39.30 0.26 39.30-2.30L39.30-2.30L39.30-2.30Q39.30-6.08 42.02-10.75L42.02-10.75L42.02-10.75Q44.74-15.42 48.90-18.69L48.90-18.69L48.90-18.69Q53.06-21.95 57.02-21.95L57.02-21.95L57.02-21.95Q59.52-21.95 61.18-20.61L61.18-20.61L61.18-20.61Q62.85-19.26 62.85-17.15L62.85-17.15L62.85-17.15Q62.85-15.68 62.02-15.04L62.02-15.04L62.02-15.04Q61.18-14.40 59.71-14.40L59.71-14.40L59.71-14.40Q60.03-15.55 60.03-16.64L60.03-16.64L60.03-16.64Q60.03-18.24 59.26-19.23L59.26-19.23L59.26-19.23Q58.50-20.22 56.90-20.22L56.90-20.22L56.90-20.22Q54.08-20.22 50.98-17.09L50.98-17.09L50.98-17.09Q47.87-13.95 45.79-9.60L45.79-9.60L45.79-9.60Q43.71-5.25 43.71-2.11L43.71-2.11L43.71-2.11Q43.71 0.38 45.44 0.38L45.44 0.38L45.44 0.38Q48 0.38 51.46-3.68L51.46-3.68L51.46-3.68Q54.91-7.74 58.88-13.57L58.88-13.57L58.88-13.57Q59.71-13.44 60.58-13.02L60.58-13.02L60.58-13.02Q61.44-12.61 61.44-11.97L61.44-11.97L61.44-11.97Q61.44-11.46 60.83-10.34L60.83-10.34L60.83-10.34Q60.22-9.22 60.10-9.02L60.10-9.02L60.10-9.02Q59.01-7.17 58.37-5.73L58.37-5.73L58.37-5.73Q57.73-4.29 57.73-3.07L57.73-3.07L57.73-3.07Q57.73-1.98 58.27-1.12L58.27-1.12L58.27-1.12Q58.82-0.26 59.90-0.26L59.90-0.26L59.90-0.26Q61.76-0.26 64.58-2.91L64.58-2.91L64.58-2.91Q67.39-5.57 70.14-10.37L70.14-10.37L70.78-9.73L70.78-9.73Q69.44-6.34 67.33-3.68L67.33-3.68L67.33-3.68Q65.22-1.02 62.78 0.45L62.78 0.45L62.78 0.45Q60.35 1.92 58.11 1.92L58.11 1.92L58.11 1.92Q55.87 1.92 54.69 0.61L54.69 0.61L54.69 0.61Q53.50-0.70 53.50-2.56L53.50-2.56L53.50-2.56Q53.50-3.39 53.70-4.42L53.70-4.42L53.70-4.42Q50.82-0.58 48.54 1.22L48.54 1.22L48.54 1.22Q46.27 3.01 44.03 3.01L44.03 3.01ZM71.30 17.92L71.30 17.92Q69.76 17.92 68.67 16.99L68.67 16.99L68.67 16.99Q67.58 16.06 67.58 14.21L67.58 14.21L67.58 14.21Q67.58 11.84 69.44 9.82L69.44 9.82L69.44 9.82Q71.30 7.81 73.70 6.37L73.70 6.37L73.70 6.37Q76.10 4.93 80.06 2.94L80.06 2.94L80.06 2.94Q81.86-1.66 83.33-7.62L83.33-7.62L83.33-7.62Q77.63 0.58 72.90 0.58L72.90 0.58L72.90 0.58Q70.66 0.58 69.38-1.12L69.38-1.12L69.38-1.12Q68.10-2.82 68.10-5.63L68.10-5.63L68.10-5.63Q68.10-9.86 70.82-13.70L70.82-13.70L70.82-13.70Q73.54-17.54 77.54-19.87L77.54-19.87L77.54-19.87Q81.54-22.21 85.06-22.21L85.06-22.21L85.06-22.21Q86.78-22.21 87.65-21.63L87.65-21.63L87.65-21.63Q88.51-21.06 88.51-20.16L88.51-20.16L88.51-20.16Q88.51-19.65 88.22-19.30L88.22-19.30L88.22-19.30Q87.94-18.94 87.74-18.88L87.74-18.88L87.74-18.88Q87.10-19.84 85.18-19.84L85.18-19.84L85.18-19.84Q81.98-19.84 79.01-17.41L79.01-17.41L79.01-17.41Q76.03-14.98 74.18-11.52L74.18-11.52L74.18-11.52Q72.32-8.06 72.32-5.31L72.32-5.31L72.32-5.31Q72.32-3.78 72.93-2.98L72.93-2.98L72.93-2.98Q73.54-2.18 74.56-2.18L74.56-2.18L74.56-2.18Q76.29-2.18 78.88-4.54L78.88-4.54L78.88-4.54Q81.47-6.91 84.03-10.62L84.03-10.62L84.80-14.02L84.80-14.02Q85.06-15.23 85.86-16.26L85.86-16.26L85.86-16.26Q86.66-17.28 88.06-17.28L88.06-17.28L88.06-17.28Q88.64-17.28 89.41-17.09L89.41-17.09L89.41-17.09Q89.41-15.36 88-10.14L88-10.14L88-10.14Q86.59-4.93 84.48 0.45L84.48 0.45L84.48 0.45Q87.81-1.15 90.66-4L90.66-4L90.66-4Q93.50-6.85 94.91-10.37L94.91-10.37L95.74-9.73L95.74-9.73Q94.40-5.82 90.91-2.62L90.91-2.62L90.91-2.62Q87.42 0.58 83.78 2.30L83.78 2.30L83.78 2.30Q80.77 9.60 77.70 13.76L77.70 13.76L77.70 13.76Q74.62 17.92 71.30 17.92L71.30 17.92ZM71.10 15.87L71.10 15.87Q72.58 15.87 74.78 13.09L74.78 13.09L74.78 13.09Q76.99 10.30 79.36 4.67L79.36 4.67L79.36 4.67Q74.69 7.04 72.13 9.09L72.13 9.09L72.13 9.09Q69.57 11.14 69.57 13.63L69.57 13.63L69.57 13.63Q69.57 14.66 69.98 15.26L69.98 15.26L69.98 15.26Q70.40 15.87 71.10 15.87L71.10 15.87ZM96.83 3.01L96.83 3.01Q94.72 3.01 93.41 1.63L93.41 1.63L93.41 1.63Q92.10 0.26 92.10-2.30L92.10-2.30L92.10-2.30Q92.10-6.08 94.82-10.75L94.82-10.75L94.82-10.75Q97.54-15.42 101.70-18.69L101.70-18.69L101.70-18.69Q105.86-21.95 109.82-21.95L109.82-21.95L109.82-21.95Q112.32-21.95 113.98-20.61L113.98-20.61L113.98-20.61Q115.65-19.26 115.65-17.15L115.65-17.15L115.65-17.15Q115.65-15.68 114.82-15.04L114.82-15.04L114.82-15.04Q113.98-14.40 112.51-14.40L112.51-14.40L112.51-14.40Q112.83-15.55 112.83-16.64L112.83-16.64L112.83-16.64Q112.83-18.24 112.06-19.23L112.06-19.23L112.06-19.23Q111.30-20.22 109.70-20.22L109.70-20.22L109.70-20.22Q106.88-20.22 103.78-17.09L103.78-17.09L103.78-17.09Q100.67-13.95 98.59-9.60L98.59-9.60L98.59-9.60Q96.51-5.25 96.51-2.11L96.51-2.11L96.51-2.11Q96.51 0.38 98.24 0.38L98.24 0.38L98.24 0.38Q100.80 0.38 104.26-3.68L104.26-3.68L104.26-3.68Q107.71-7.74 111.68-13.57L111.68-13.57L111.68-13.57Q112.51-13.44 113.38-13.02L113.38-13.02L113.38-13.02Q114.24-12.61 114.24-11.97L114.24-11.97L114.24-11.97Q114.24-11.46 113.63-10.34L113.63-10.34L113.63-10.34Q113.02-9.22 112.90-9.02L112.90-9.02L112.90-9.02Q111.81-7.17 111.17-5.73L111.17-5.73L111.17-5.73Q110.53-4.29 110.53-3.07L110.53-3.07L110.53-3.07Q110.53-1.98 111.07-1.12L111.07-1.12L111.07-1.12Q111.62-0.26 112.70-0.26L112.70-0.26L112.70-0.26Q114.56-0.26 117.38-2.91L117.38-2.91L117.38-2.91Q120.19-5.57 122.94-10.37L122.94-10.37L123.58-9.73L123.58-9.73Q122.24-6.34 120.13-3.68L120.13-3.68L120.13-3.68Q118.02-1.02 115.58 0.45L115.58 0.45L115.58 0.45Q113.15 1.92 110.91 1.92L110.91 1.92L110.91 1.92Q108.67 1.92 107.49 0.61L107.49 0.61L107.49 0.61Q106.30-0.70 106.30-2.56L106.30-2.56L106.30-2.56Q106.30-3.39 106.50-4.42L106.50-4.42L106.50-4.42Q103.62-0.58 101.34 1.22L101.34 1.22L101.34 1.22Q99.07 3.01 96.83 3.01L96.83 3.01ZM132.74 1.66L132.74 1.66Q130.56 1.66 129.31 0.51L129.31 0.51L129.31 0.51Q128.06-0.64 128.06-2.50L128.06-2.50L128.06-2.50Q128.06-4.67 129.92-8.77L129.92-8.77L129.92-8.77Q130.75-10.88 131.17-12.13L131.17-12.13L131.17-12.13Q131.58-13.38 131.58-14.46L131.58-14.46L131.58-14.46Q131.58-16.06 130.85-16.99L130.85-16.99L130.85-16.99Q130.11-17.92 129.22-18.53L129.22-18.53L129.22-18.53Q128.32-19.14 128-19.33L128-19.33L128-19.33Q126.59-15.74 124.99-12.32L124.99-12.32L124.99-12.32Q123.39-8.90 122.30-7.04L122.30-7.04L121.73-8.13L121.73-8.13Q124.80-14.08 126.91-20.29L126.91-20.29L126.91-20.29Q126.27-20.93 126.27-21.82L126.27-21.82L126.27-21.82Q126.27-22.98 126.75-24L126.75-24L126.75-24Q127.23-25.02 127.90-25.60L127.90-25.60L127.90-25.60Q128.58-26.18 128.96-26.18L128.96-26.18L128.96-26.18Q129.86-26.18 129.86-24.64L129.86-24.64L129.86-24.64Q129.86-24.38 129.54-23.49L129.54-23.49L129.54-23.49Q129.22-22.59 129.15-22.27L129.15-22.27L129.15-22.27Q129.15-21.63 129.70-21.09L129.70-21.09L129.70-21.09Q130.24-20.54 131.46-19.71L131.46-19.71L131.46-19.71Q133.44-18.30 134.56-16.93L134.56-16.93L134.56-16.93Q135.68-15.55 135.68-13.38L135.68-13.38L135.68-13.38Q135.68-11.97 135.23-10.59L135.23-10.59L135.23-10.59Q134.78-9.22 133.89-6.98L133.89-6.98L133.89-6.98Q132.48-3.90 132.48-2.56L132.48-2.56L132.48-2.56Q132.48-0.64 134.40-0.64L134.40-0.64L134.40-0.64Q136.32-0.64 138.53-2.18L138.53-2.18L138.53-2.18Q140.74-3.71 142.59-5.98L142.59-5.98L142.59-5.98Q144.45-8.26 145.28-10.18L145.28-10.18L146.11-9.54L146.11-9.54Q144.13-5.12 140.35-1.73L140.35-1.73L140.35-1.73Q136.58 1.66 132.74 1.66L132.74 1.66ZM149.38 2.94L149.38 2.94Q143.68 2.94 143.68-3.39L143.68-3.39L143.68-3.39Q143.68-6.14 144.67-10.21L144.67-10.21L144.67-10.21Q145.66-14.27 147.39-18.82L147.39-18.82L147.39-18.82Q145.86-19.07 145.09-19.33L145.09-19.33L145.09-20.48L145.09-20.48Q147.39-20.22 147.90-20.22L147.90-20.22L147.90-20.22Q150.72-27.52 153.95-32.86L153.95-32.86L153.95-32.86Q157.18-38.21 159.04-38.21L159.04-38.21L159.04-38.21Q159.55-38.21 159.97-37.82L159.97-37.82L159.97-37.82Q160.38-37.44 160.38-36.80L160.38-36.80L160.38-36.80Q160.38-35.97 159.58-34.37L159.58-34.37L159.58-34.37Q158.78-32.77 156.86-29.44L156.86-29.44L156.86-29.44Q156.54-28.80 154.88-25.89L154.88-25.89L154.88-25.89Q153.22-22.98 151.87-20.03L151.87-20.03L154.24-20.03L154.24-20.03Q159.55-20.03 163.39-20.42L163.39-20.42L163.39-19.26L163.39-19.26Q156.42-18.50 152.13-18.50L152.13-18.50L151.17-18.50L151.17-18.50Q147.65-10.43 147.65-4.54L147.65-4.54L147.65-4.54Q147.65-1.79 148.48-0.61L148.48-0.61L148.48-0.61Q149.31 0.58 151.23 0.58L151.23 0.58L151.23 0.58Q154.50 0.58 157.70-2.34L157.70-2.34L157.70-2.34Q160.90-5.25 163.39-10.37L163.39-10.37L164.22-9.73L164.22-9.73Q161.86-4.16 157.82-0.61L157.82-0.61L157.82-0.61Q153.79 2.94 149.38 2.94L149.38 2.94ZM165.18 2.43L165.18 2.43Q164.03 2.43 163.30 0.45L163.30 0.45L163.30 0.45Q162.56-1.54 162.56-4.22L162.56-4.22L162.56-4.22Q162.56-10.11 166.18-20.10L166.18-20.10L166.18-20.10Q169.79-30.08 174.40-37.89L174.40-37.89L174.40-37.89Q179.01-45.70 181.70-45.70L181.70-45.70L181.70-45.70Q182.72-45.70 183.26-44.45L183.26-44.45L183.26-44.45Q183.81-43.20 183.81-41.66L183.81-41.66L183.81-41.66Q183.81-38.66 181.66-33.66L181.66-33.66L181.66-33.66Q179.52-28.67 176.10-24.06L176.10-24.06L176.10-24.06Q172.67-19.46 169.09-17.28L169.09-17.28L169.09-17.28Q167.94-14.59 167.33-11.04L167.33-11.04L167.33-11.04Q166.72-7.49 166.72-4.67L166.72-4.67L166.72-4.67Q166.72-3.65 166.85-2.50L166.85-2.50L166.85-2.50Q169.41-9.92 172.64-14.50L172.64-14.50L172.64-14.50Q175.87-19.07 179.84-19.07L179.84-19.07L179.84-19.07Q182.27-19.07 183.49-17.38L183.49-17.38L183.49-17.38Q184.70-15.68 184.70-13.31L184.70-13.31L184.70-13.31Q184.70-11.90 184.35-10.62L184.35-10.62L184.35-10.62Q184.00-9.34 183.23-7.30L183.23-7.30L183.23-7.30Q182.59-5.57 182.27-4.54L182.27-4.54L182.27-4.54Q181.95-3.52 181.95-2.56L181.95-2.56L181.95-2.56Q181.95-1.34 182.46-0.74L182.46-0.74L182.46-0.74Q182.98-0.13 183.87-0.13L183.87-0.13L183.87-0.13Q186.05-0.13 188.99-3.17L188.99-3.17L188.99-3.17Q191.94-6.21 193.86-10.37L193.86-10.37L194.69-9.60L194.69-9.60Q192.58-4.74 189.28-1.60L189.28-1.60L189.28-1.60Q185.98 1.54 182.40 1.54L182.40 1.54L182.40 1.54Q180.29 1.54 179.14 0.42L179.14 0.42L179.14 0.42Q177.98-0.70 177.98-2.50L177.98-2.50L177.98-2.50Q177.98-3.90 178.94-7.04L178.94-7.04L178.94-7.04Q179.97-10.50 179.97-12.16L179.97-12.16L179.97-12.16Q179.97-13.76 179.30-14.50L179.30-14.50L179.30-14.50Q178.62-15.23 177.54-15.23L177.54-15.23L177.54-15.23Q175.17-15.23 173.41-12.45L173.41-12.45L173.41-12.45Q171.65-9.66 169.60-4.61L169.60-4.61L169.60-4.61Q168.06-0.90 167.17 0.77L167.17 0.77L167.17 0.77Q166.27 2.43 165.18 2.43L165.18 2.43ZM169.92-19.78L169.92-19.78Q172.67-21.95 175.39-26.08L175.39-26.08L175.39-26.08Q178.11-30.21 179.87-34.27L179.87-34.27L179.87-34.27Q181.63-38.34 181.63-40L181.63-40L181.63-40Q181.63-40.51 181.38-40.51L181.38-40.51L181.38-40.51Q180.67-40.51 178.46-37.34L178.46-37.34L178.46-37.34Q176.26-34.18 173.82-29.38L173.82-29.38L173.82-29.38Q171.39-24.58 169.92-19.78L169.92-19.78ZM204.93-27.65L204.93-27.65Q203.78-27.65 203.04-28.19L203.04-28.19L203.04-28.19Q202.30-28.74 202.30-29.76L202.30-29.76L202.30-29.76Q202.30-31.04 203.84-32.06L203.84-32.06L203.84-32.06Q205.38-33.09 206.98-33.09L206.98-33.09L206.98-33.09Q209.09-33.09 209.09-31.10L209.09-31.10L209.09-31.10Q209.09-29.89 207.78-28.77L207.78-28.77L207.78-28.77Q206.46-27.65 204.93-27.65L204.93-27.65ZM197.25 1.66L197.25 1.66Q194.88 1.66 193.60 0.16L193.60 0.16L193.60 0.16Q192.32-1.34 192.32-3.71L192.32-3.71L192.32-3.71Q192.32-6.21 193.76-10.62L193.76-10.62L193.76-10.62Q195.20-15.04 197.34-18.37L197.34-18.37L197.34-18.37Q199.49-21.70 201.54-21.70L201.54-21.70L201.54-21.70Q202.11-21.70 202.53-21.31L202.53-21.31L202.53-21.31Q202.94-20.93 202.94-20.29L202.94-20.29L202.94-20.29Q202.94-19.39 200.90-16L200.90-16L200.90-16Q198.78-12.48 197.54-9.70L197.54-9.70L197.54-9.70Q196.29-6.91 196.29-4.42L196.29-4.42L196.29-4.42Q196.29-2.18 197.02-1.38L197.02-1.38L197.02-1.38Q197.76-0.58 199.42-0.58L199.42-0.58L199.42-0.58Q204.42-0.58 209.28-10.37L209.28-10.37L209.86-9.73L209.86-9.73Q208.06-4.35 204.58-1.34L204.58-1.34L204.58-1.34Q201.09 1.66 197.25 1.66L197.25 1.66ZM228.22 5.57L228.22 5.57Q229.06 0.90 230.53-4.61L230.53-4.61L230.53-4.61Q232-10.11 235.26-20.10L235.26-20.10L231.04-19.65L231.04-19.65Q231.10-22.46 236.35-23.55L236.35-23.55L236.35-23.55Q238.72-30.78 241.79-39.62L241.79-39.62L241.79-39.62Q241.86-39.81 242.27-41.02L242.27-41.02L242.27-41.02Q242.69-42.24 242.69-43.39L242.69-43.39L242.69-43.39Q242.69-43.90 242.53-44.10L242.53-44.10L242.53-44.10Q242.37-44.29 241.79-44.29L241.79-44.29L241.79-44.29Q239.81-44.29 237.98-42.24L237.98-42.24L237.98-42.24Q236.16-40.19 235.01-37.31L235.01-37.31L235.01-37.31Q233.86-34.43 233.86-32.26L233.86-32.26L233.86-32.26Q233.86-31.04 234.18-30.08L234.18-30.08L234.18-30.08Q232.19-30.08 231.26-31.07L231.26-31.07L231.26-31.07Q230.34-32.06 230.34-33.73L230.34-33.73L230.34-33.73Q230.34-36.48 232.48-39.39L232.48-39.39L232.48-39.39Q234.62-42.30 237.70-44.19L237.70-44.19L237.70-44.19Q240.77-46.08 243.14-46.08L243.14-46.08L243.14-46.08Q244.74-46.08 245.41-45.22L245.41-45.22L245.41-45.22Q246.08-44.35 246.08-43.01L246.08-43.01L246.08-43.01Q246.08-41.92 245.57-40.26L245.57-40.26L240.58-24L240.58-24Q242.88-24.13 244.29-24.13L244.29-24.13L244.29-24.13Q249.28-24.13 255.17-23.55L255.17-23.55L255.17-23.55Q257.15-30.14 258.98-35.58L258.98-35.58L258.98-35.58Q260.80-41.02 261.63-42.75L261.63-42.75L261.63-42.75Q263.17-46.08 265.15-46.08L265.15-46.08L265.15-46.08Q263.87-42.69 262.05-36.42L262.05-36.42L262.05-36.42Q260.22-30.14 258.43-23.30L258.43-23.30L258.43-23.30Q259.07-23.30 260.48-23.17L260.48-23.17L260.48-23.17Q262.40-23.04 263.23-23.04L263.23-23.04L263.23-23.04Q261.95-21.70 260.74-21.34L260.74-21.34L260.74-21.34Q259.52-20.99 257.86-20.99L257.86-20.99L257.86-20.99Q256.51-15.49 255.87-12.22L255.87-12.22L255.87-12.22Q253.76-2.18 253.76 3.26L253.76 3.26L253.76 3.26Q253.76 4.42 253.89 5.57L253.89 5.57L253.89 5.57Q251.46 5.31 250.46 4.19L250.46 4.19L250.46 4.19Q249.47 3.07 249.47 0.58L249.47 0.58L249.47 0.58Q249.47-3.14 251.01-9.09L251.01-9.09L251.01-9.09Q252.03-13.31 254.40-20.93L254.40-20.93L254.40-20.93Q249.28-20.93 245.73-20.83L245.73-20.83L245.73-20.83Q242.18-20.74 239.49-20.48L239.49-20.48L239.49-20.48Q233.98-3.14 232.64 1.47L232.64 1.47L232.64 1.47Q232 3.52 230.72 4.54L230.72 4.54L230.72 4.54Q229.44 5.57 228.22 5.57L228.22 5.57ZM267.26 3.01L267.26 3.01Q265.15 3.01 263.84 1.63L263.84 1.63L263.84 1.63Q262.53 0.26 262.53-2.30L262.53-2.30L262.53-2.30Q262.53-6.08 265.25-10.75L265.25-10.75L265.25-10.75Q267.97-15.42 272.13-18.69L272.13-18.69L272.13-18.69Q276.29-21.95 280.26-21.95L280.26-21.95L280.26-21.95Q282.75-21.95 284.42-20.61L284.42-20.61L284.42-20.61Q286.08-19.26 286.08-17.15L286.08-17.15L286.08-17.15Q286.08-15.68 285.25-15.04L285.25-15.04L285.25-15.04Q284.42-14.40 282.94-14.40L282.94-14.40L282.94-14.40Q283.26-15.55 283.26-16.64L283.26-16.64L283.26-16.64Q283.26-18.24 282.50-19.23L282.50-19.23L282.50-19.23Q281.73-20.22 280.13-20.22L280.13-20.22L280.13-20.22Q277.31-20.22 274.21-17.09L274.21-17.09L274.21-17.09Q271.10-13.95 269.02-9.60L269.02-9.60L269.02-9.60Q266.94-5.25 266.94-2.11L266.94-2.11L266.94-2.11Q266.94 0.38 268.67 0.38L268.67 0.38L268.67 0.38Q271.23 0.38 274.69-3.68L274.69-3.68L274.69-3.68Q278.14-7.74 282.11-13.57L282.11-13.57L282.11-13.57Q282.94-13.44 283.81-13.02L283.81-13.02L283.81-13.02Q284.67-12.61 284.67-11.97L284.67-11.97L284.67-11.97Q284.67-11.46 284.06-10.34L284.06-10.34L284.06-10.34Q283.46-9.22 283.33-9.02L283.33-9.02L283.33-9.02Q282.24-7.17 281.60-5.73L281.60-5.73L281.60-5.73Q280.96-4.29 280.96-3.07L280.96-3.07L280.96-3.07Q280.96-1.98 281.50-1.12L281.50-1.12L281.50-1.12Q282.05-0.26 283.14-0.26L283.14-0.26L283.14-0.26Q284.99-0.26 287.81-2.91L287.81-2.91L287.81-2.91Q290.62-5.57 293.38-10.37L293.38-10.37L294.02-9.73L294.02-9.73Q292.67-6.34 290.56-3.68L290.56-3.68L290.56-3.68Q288.45-1.02 286.02 0.45L286.02 0.45L286.02 0.45Q283.58 1.92 281.34 1.92L281.34 1.92L281.34 1.92Q279.10 1.92 277.92 0.61L277.92 0.61L277.92 0.61Q276.74-0.70 276.74-2.56L276.74-2.56L276.74-2.56Q276.74-3.39 276.93-4.42L276.93-4.42L276.93-4.42Q274.05-0.58 271.78 1.22L271.78 1.22L271.78 1.22Q269.50 3.01 267.26 3.01L267.26 3.01ZM303.17 1.66L303.17 1.66Q300.99 1.66 299.74 0.51L299.74 0.51L299.74 0.51Q298.50-0.64 298.50-2.50L298.50-2.50L298.50-2.50Q298.50-4.67 300.35-8.77L300.35-8.77L300.35-8.77Q301.18-10.88 301.60-12.13L301.60-12.13L301.60-12.13Q302.02-13.38 302.02-14.46L302.02-14.46L302.02-14.46Q302.02-16.06 301.28-16.99L301.28-16.99L301.28-16.99Q300.54-17.92 299.65-18.53L299.65-18.53L299.65-18.53Q298.75-19.14 298.43-19.33L298.43-19.33L298.43-19.33Q297.02-15.74 295.42-12.32L295.42-12.32L295.42-12.32Q293.82-8.90 292.74-7.04L292.74-7.04L292.16-8.13L292.16-8.13Q295.23-14.08 297.34-20.29L297.34-20.29L297.34-20.29Q296.70-20.93 296.70-21.82L296.70-21.82L296.70-21.82Q296.70-22.98 297.18-24L297.18-24L297.18-24Q297.66-25.02 298.34-25.60L298.34-25.60L298.34-25.60Q299.01-26.18 299.39-26.18L299.39-26.18L299.39-26.18Q300.29-26.18 300.29-24.64L300.29-24.64L300.29-24.64Q300.29-24.38 299.97-23.49L299.97-23.49L299.97-23.49Q299.65-22.59 299.58-22.27L299.58-22.27L299.58-22.27Q299.58-21.63 300.13-21.09L300.13-21.09L300.13-21.09Q300.67-20.54 301.89-19.71L301.89-19.71L301.89-19.71Q303.87-18.30 304.99-16.93L304.99-16.93L304.99-16.93Q306.11-15.55 306.11-13.38L306.11-13.38L306.11-13.38Q306.11-11.97 305.66-10.59L305.66-10.59L305.66-10.59Q305.22-9.22 304.32-6.98L304.32-6.98L304.32-6.98Q302.91-3.90 302.91-2.56L302.91-2.56L302.91-2.56Q302.91-0.64 304.83-0.64L304.83-0.64L304.83-0.64Q306.75-0.64 308.96-2.18L308.96-2.18L308.96-2.18Q311.17-3.71 313.02-5.98L313.02-5.98L313.02-5.98Q314.88-8.26 315.71-10.18L315.71-10.18L316.54-9.54L316.54-9.54Q314.56-5.12 310.78-1.73L310.78-1.73L310.78-1.73Q307.01 1.66 303.17 1.66L303.17 1.66ZM321.09 3.26L321.09 3.26Q316.93 3.26 315.01 0.77L315.01 0.77L315.01 0.77Q313.09-1.73 313.09-5.12L313.09-5.12L313.09-5.12Q313.09-7.68 313.98-8.74L313.98-8.74L313.98-8.74Q314.88-9.79 315.94-10.24L315.94-10.24L315.94-10.24Q316.99-10.69 317.18-10.88L317.18-10.88L317.18-10.88Q321.28-15.36 323.52-20.16L323.52-20.16L323.52-20.93L323.52-20.93Q323.52-23.10 324.26-24.19L324.26-24.19L324.26-24.19Q324.99-25.28 326.02-25.28L326.02-25.28L326.02-25.28Q326.53-25.28 326.78-25.06L326.78-25.06L326.78-25.06Q327.04-24.83 327.04-24.45L327.04-24.45L327.04-24.45Q327.04-24.19 326.85-23.39L326.85-23.39L326.85-23.39Q326.66-22.59 326.66-21.63L326.66-21.63L326.66-21.63Q326.66-20.35 327.01-18.91L327.01-18.91L327.01-18.91Q327.36-17.47 328.13-15.17L328.13-15.17L328.13-15.17Q329.02-12.42 329.50-10.37L329.50-10.37L329.50-10.37Q329.98-8.32 329.98-6.21L329.98-6.21L329.98-6.21Q329.98-4.54 329.60-3.07L329.60-3.07L329.60-3.07Q331.90-3.46 333.89-5.15L333.89-5.15L333.89-5.15Q335.87-6.85 337.66-10.30L337.66-10.30L338.24-9.66L338.24-9.66Q337.09-6.34 334.72-4.42L334.72-4.42L334.72-4.42Q332.35-2.50 329.28-2.05L329.28-2.05L329.28-2.05Q328.32 0.58 326.14 1.92L326.14 1.92L326.14 1.92Q323.97 3.26 321.09 3.26L321.09 3.26ZM325.57-3.14L325.57-3.14Q325.82-4.80 325.82-6.14L325.82-6.14L325.82-6.14Q325.82-8.06 325.50-9.98L325.50-9.98L325.50-9.98Q325.18-11.90 324.54-14.40L324.54-14.40L324.54-14.40Q323.97-16.96 323.84-17.73L323.84-17.73L323.84-17.73Q320.58-12.35 317.63-9.41L317.63-9.41L317.63-9.41Q318.66-7.17 320.74-5.44L320.74-5.44L320.74-5.44Q322.82-3.71 325.57-3.14L325.57-3.14ZM321.22 1.02L321.22 1.02Q324.16 1.02 325.25-2.11L325.25-2.11L325.25-2.11Q322.69-2.62 320.58-4.13L320.58-4.13L320.58-4.13Q318.46-5.63 317.38-7.42L317.38-7.42L317.38-7.42Q315.97-7.36 315.97-5.18L315.97-5.18L315.97-5.18Q315.97-2.75 317.41-0.86L317.41-0.86L317.41-0.86Q318.85 1.02 321.22 1.02L321.22 1.02ZM339.46 2.43L339.46 2.43Q338.30 2.43 337.57 0.45L337.57 0.45L337.57 0.45Q336.83-1.54 336.83-4.22L336.83-4.22L336.83-4.22Q336.83-10.11 340.45-20.10L340.45-20.10L340.45-20.10Q344.06-30.08 348.67-37.89L348.67-37.89L348.67-37.89Q353.28-45.70 355.97-45.70L355.97-45.70L355.97-45.70Q356.99-45.70 357.54-44.45L357.54-44.45L357.54-44.45Q358.08-43.20 358.08-41.66L358.08-41.66L358.08-41.66Q358.08-38.66 355.94-33.66L355.94-33.66L355.94-33.66Q353.79-28.67 350.37-24.06L350.37-24.06L350.37-24.06Q346.94-19.46 343.36-17.28L343.36-17.28L343.36-17.28Q342.21-14.59 341.60-11.04L341.60-11.04L341.60-11.04Q340.99-7.49 340.99-4.67L340.99-4.67L340.99-4.67Q340.99-3.65 341.12-2.50L341.12-2.50L341.12-2.50Q343.68-9.92 346.91-14.50L346.91-14.50L346.91-14.50Q350.14-19.07 354.11-19.07L354.11-19.07L354.11-19.07Q356.54-19.07 357.76-17.38L357.76-17.38L357.76-17.38Q358.98-15.68 358.98-13.31L358.98-13.31L358.98-13.31Q358.98-11.90 358.62-10.62L358.62-10.62L358.62-10.62Q358.27-9.34 357.50-7.30L357.50-7.30L357.50-7.30Q356.86-5.57 356.54-4.54L356.54-4.54L356.54-4.54Q356.22-3.52 356.22-2.56L356.22-2.56L356.22-2.56Q356.22-1.34 356.74-0.74L356.74-0.74L356.74-0.74Q357.25-0.13 358.14-0.13L358.14-0.13L358.14-0.13Q360.32-0.13 363.26-3.17L363.26-3.17L363.26-3.17Q366.21-6.21 368.13-10.37L368.13-10.37L368.96-9.60L368.96-9.60Q366.85-4.74 363.55-1.60L363.55-1.60L363.55-1.60Q360.26 1.54 356.67 1.54L356.67 1.54L356.67 1.54Q354.56 1.54 353.41 0.42L353.41 0.42L353.41 0.42Q352.26-0.70 352.26-2.50L352.26-2.50L352.26-2.50Q352.26-3.90 353.22-7.04L353.22-7.04L353.22-7.04Q354.24-10.50 354.24-12.16L354.24-12.16L354.24-12.16Q354.24-13.76 353.57-14.50L353.57-14.50L353.57-14.50Q352.90-15.23 351.81-15.23L351.81-15.23L351.81-15.23Q349.44-15.23 347.68-12.45L347.68-12.45L347.68-12.45Q345.92-9.66 343.87-4.61L343.87-4.61L343.87-4.61Q342.34-0.90 341.44 0.77L341.44 0.77L341.44 0.77Q340.54 2.43 339.46 2.43L339.46 2.43ZM344.19-19.78L344.19-19.78Q346.94-21.95 349.66-26.08L349.66-26.08L349.66-26.08Q352.38-30.21 354.14-34.27L354.14-34.27L354.14-34.27Q355.90-38.34 355.90-40L355.90-40L355.90-40Q355.90-40.51 355.65-40.51L355.65-40.51L355.65-40.51Q354.94-40.51 352.74-37.34L352.74-37.34L352.74-37.34Q350.53-34.18 348.10-29.38L348.10-29.38L348.10-29.38Q345.66-24.58 344.19-19.78L344.19-19.78ZM369.98 3.01L369.98 3.01Q367.87 3.01 366.56 1.63L366.56 1.63L366.56 1.63Q365.25 0.26 365.25-2.30L365.25-2.30L365.25-2.30Q365.25-6.08 367.97-10.75L367.97-10.75L367.97-10.75Q370.69-15.42 374.85-18.69L374.85-18.69L374.85-18.69Q379.01-21.95 382.98-21.95L382.98-21.95L382.98-21.95Q385.47-21.95 387.14-20.61L387.14-20.61L387.14-20.61Q388.80-19.26 388.80-17.15L388.80-17.15L388.80-17.15Q388.80-15.68 387.97-15.04L387.97-15.04L387.97-15.04Q387.14-14.40 385.66-14.40L385.66-14.40L385.66-14.40Q385.98-15.55 385.98-16.64L385.98-16.64L385.98-16.64Q385.98-18.24 385.22-19.23L385.22-19.23L385.22-19.23Q384.45-20.22 382.85-20.22L382.85-20.22L382.85-20.22Q380.03-20.22 376.93-17.09L376.93-17.09L376.93-17.09Q373.82-13.95 371.74-9.60L371.74-9.60L371.74-9.60Q369.66-5.25 369.66-2.11L369.66-2.11L369.66-2.11Q369.66 0.38 371.39 0.38L371.39 0.38L371.39 0.38Q373.95 0.38 377.41-3.68L377.41-3.68L377.41-3.68Q380.86-7.74 384.83-13.57L384.83-13.57L384.83-13.57Q385.66-13.44 386.53-13.02L386.53-13.02L386.53-13.02Q387.39-12.61 387.39-11.97L387.39-11.97L387.39-11.97Q387.39-11.46 386.78-10.34L386.78-10.34L386.78-10.34Q386.18-9.22 386.05-9.02L386.05-9.02L386.05-9.02Q384.96-7.17 384.32-5.73L384.32-5.73L384.32-5.73Q383.68-4.29 383.68-3.07L383.68-3.07L383.68-3.07Q383.68-1.98 384.22-1.12L384.22-1.12L384.22-1.12Q384.77-0.26 385.86-0.26L385.86-0.26L385.86-0.26Q387.71-0.26 390.53-2.91L390.53-2.91L390.53-2.91Q393.34-5.57 396.10-10.37L396.10-10.37L396.74-9.73L396.74-9.73Q395.39-6.34 393.28-3.68L393.28-3.68L393.28-3.68Q391.17-1.02 388.74 0.45L388.74 0.45L388.74 0.45Q386.30 1.92 384.06 1.92L384.06 1.92L384.06 1.92Q381.82 1.92 380.64 0.61L380.64 0.61L380.64 0.61Q379.46-0.70 379.46-2.56L379.46-2.56L379.46-2.56Q379.46-3.39 379.65-4.42L379.65-4.42L379.65-4.42Q376.77-0.58 374.50 1.22L374.50 1.22L374.50 1.22Q372.22 3.01 369.98 3.01L369.98 3.01ZM398.98 2.50L398.98 2.50Q397.06 2.50 396.26 0.67L396.26 0.67L396.26 0.67Q395.46-1.15 395.46-4.54L395.46-4.54L395.46-4.54Q395.46-5.76 395.84-12.93L395.84-12.93L395.84-12.93Q395.97-14.85 396.29-15.39L396.29-15.39L396.29-15.39Q396.61-15.94 397.89-15.94L397.89-15.94L397.89-15.94Q398.98-15.94 399.26-15.52L399.26-15.52L399.26-15.52Q399.55-15.10 399.55-13.89L399.55-13.89L399.55-13.89Q399.55-12.61 399.30-9.15L399.30-9.15L399.30-9.15Q398.98-6.08 398.98-3.58L398.98-3.58L398.98-3.58Q398.98-1.66 399.30-0.83L399.30-0.83L399.30-0.83Q399.62 0 400.45 0L400.45 0L400.45 0Q402.56 0 405.57-4.32L405.57-4.32L405.57-4.32Q408.58-8.64 411.01-14.02L411.01-14.02L411.01-14.02Q411.14-18.05 411.87-19.65L411.87-19.65L411.87-19.65Q412.61-21.25 413.95-21.25L413.95-21.25L413.95-21.25Q415.04-21.25 415.65-20.45L415.65-20.45L415.65-20.45Q416.26-19.65 416.26-18.82L416.26-18.82L416.26-18.82Q416.26-18.18 415.62-17.02L415.62-17.02L415.62-17.02Q414.85-15.55 414.43-14.11L414.43-14.11L414.43-14.11Q414.02-12.67 414.02-10.24L414.02-10.24L414.02-10.24Q414.02-8.13 414.62-6.75L414.62-6.75L414.62-6.75Q415.23-5.38 417.02-5.38L417.02-5.38L417.02-5.38Q418.43-5.38 419.65-6.46L419.65-6.46L419.65-6.46Q420.86-7.55 422.08-10.11L422.08-10.11L422.91-9.47L422.91-9.47Q420.61-4.10 416.58-4.10L416.58-4.10L416.58-4.10Q414.40-4.10 413.02-5.66L413.02-5.66L413.02-5.66Q411.65-7.23 411.20-10.30L411.20-10.30L411.20-10.30Q408.58-5.06 405.22-1.28L405.22-1.28L405.22-1.28Q401.86 2.50 398.98 2.50L398.98 2.50ZM423.94 3.01L423.94 3.01Q421.82 3.01 420.51 1.63L420.51 1.63L420.51 1.63Q419.20 0.26 419.20-2.30L419.20-2.30L419.20-2.30Q419.20-6.08 421.92-10.75L421.92-10.75L421.92-10.75Q424.64-15.42 428.80-18.69L428.80-18.69L428.80-18.69Q432.96-21.95 436.93-21.95L436.93-21.95L436.93-21.95Q439.42-21.95 441.09-20.61L441.09-20.61L441.09-20.61Q442.75-19.26 442.75-17.15L442.75-17.15L442.75-17.15Q442.75-15.68 441.92-15.04L441.92-15.04L441.92-15.04Q441.09-14.40 439.62-14.40L439.62-14.40L439.62-14.40Q439.94-15.55 439.94-16.64L439.94-16.64L439.94-16.64Q439.94-18.24 439.17-19.23L439.17-19.23L439.17-19.23Q438.40-20.22 436.80-20.22L436.80-20.22L436.80-20.22Q433.98-20.22 430.88-17.09L430.88-17.09L430.88-17.09Q427.78-13.95 425.70-9.60L425.70-9.60L425.70-9.60Q423.62-5.25 423.62-2.11L423.62-2.11L423.62-2.11Q423.62 0.38 425.34 0.38L425.34 0.38L425.34 0.38Q427.90 0.38 431.36-3.68L431.36-3.68L431.36-3.68Q434.82-7.74 438.78-13.57L438.78-13.57L438.78-13.57Q439.62-13.44 440.48-13.02L440.48-13.02L440.48-13.02Q441.34-12.61 441.34-11.97L441.34-11.97L441.34-11.97Q441.34-11.46 440.74-10.34L440.74-10.34L440.74-10.34Q440.13-9.22 440-9.02L440-9.02L440-9.02Q438.91-7.17 438.27-5.73L438.27-5.73L438.27-5.73Q437.63-4.29 437.63-3.07L437.63-3.07L437.63-3.07Q437.63-1.98 438.18-1.12L438.18-1.12L438.18-1.12Q438.72-0.26 439.81-0.26L439.81-0.26L439.81-0.26Q441.66-0.26 444.48-2.91L444.48-2.91L444.48-2.91Q447.30-5.57 450.05-10.37L450.05-10.37L450.69-9.73L450.69-9.73Q449.34-6.34 447.23-3.68L447.23-3.68L447.23-3.68Q445.12-1.02 442.69 0.45L442.69 0.45L442.69 0.45Q440.26 1.92 438.02 1.92L438.02 1.92L438.02 1.92Q435.78 1.92 434.59 0.61L434.59 0.61L434.59 0.61Q433.41-0.70 433.41-2.56L433.41-2.56L433.41-2.56Q433.41-3.39 433.60-4.42L433.60-4.42L433.60-4.42Q430.72-0.58 428.45 1.22L428.45 1.22L428.45 1.22Q426.18 3.01 423.94 3.01L423.94 3.01ZM459.84 1.66L459.84 1.66Q457.66 1.66 456.42 0.51L456.42 0.51L456.42 0.51Q455.17-0.64 455.17-2.50L455.17-2.50L455.17-2.50Q455.17-4.67 457.02-8.77L457.02-8.77L457.02-8.77Q457.86-10.88 458.27-12.13L458.27-12.13L458.27-12.13Q458.69-13.38 458.69-14.46L458.69-14.46L458.69-14.46Q458.69-16.06 457.95-16.99L457.95-16.99L457.95-16.99Q457.22-17.92 456.32-18.53L456.32-18.53L456.32-18.53Q455.42-19.14 455.10-19.33L455.10-19.33L455.10-19.33Q453.70-15.74 452.10-12.32L452.10-12.32L452.10-12.32Q450.50-8.90 449.41-7.04L449.41-7.04L448.83-8.13L448.83-8.13Q451.90-14.08 454.02-20.29L454.02-20.29L454.02-20.29Q453.38-20.93 453.38-21.82L453.38-21.82L453.38-21.82Q453.38-22.98 453.86-24L453.86-24L453.86-24Q454.34-25.02 455.01-25.60L455.01-25.60L455.01-25.60Q455.68-26.18 456.06-26.18L456.06-26.18L456.06-26.18Q456.96-26.18 456.96-24.64L456.96-24.64L456.96-24.64Q456.96-24.38 456.64-23.49L456.64-23.49L456.64-23.49Q456.32-22.59 456.26-22.27L456.26-22.27L456.26-22.27Q456.26-21.63 456.80-21.09L456.80-21.09L456.80-21.09Q457.34-20.54 458.56-19.71L458.56-19.71L458.56-19.71Q460.54-18.30 461.66-16.93L461.66-16.93L461.66-16.93Q462.78-15.55 462.78-13.38L462.78-13.38L462.78-13.38Q462.78-11.97 462.34-10.59L462.34-10.59L462.34-10.59Q461.89-9.22 460.99-6.98L460.99-6.98L460.99-6.98Q459.58-3.90 459.58-2.56L459.58-2.56L459.58-2.56Q459.58-0.64 461.50-0.64L461.50-0.64L461.50-0.64Q463.42-0.64 465.63-2.18L465.63-2.18L465.63-2.18Q467.84-3.71 469.70-5.98L469.70-5.98L469.70-5.98Q471.55-8.26 472.38-10.18L472.38-10.18L473.22-9.54L473.22-9.54Q471.23-5.12 467.46-1.73L467.46-1.73L467.46-1.73Q463.68 1.66 459.84 1.66L459.84 1.66ZM474.82 1.92L474.82 1.92Q472.96 1.92 471.49 0.54L471.49 0.54L471.49 0.54Q470.02-0.83 470.02-3.46L470.02-3.46L470.02-3.46Q470.02-6.98 472.70-11.68L472.70-11.68L472.70-11.68Q475.39-16.38 479.42-19.71L479.42-19.71L479.42-19.71Q483.46-23.04 487.23-23.04L487.23-23.04L487.23-23.04Q490.05-23.04 490.05-21.06L490.05-21.06L490.05-21.06Q490.05-20.80 489.92-20.16L489.92-20.16L489.92-20.16Q489.28-21.12 487.49-21.12L487.49-21.12L487.49-21.12Q484.29-21.12 481.28-18.08L481.28-18.08L481.28-18.08Q478.27-15.04 476.38-10.94L476.38-10.94L476.38-10.94Q474.50-6.85 474.50-4.22L474.50-4.22L474.50-4.22Q474.50-2.82 475.10-1.98L475.10-1.98L475.10-1.98Q475.71-1.15 476.80-1.15L476.80-1.15L476.80-1.15Q478.53-1.15 481.02-3.36L481.02-3.36L481.02-3.36Q483.52-5.57 486.08-9.60L486.08-9.60L486.08-9.60Q488.64-13.63 490.62-18.75L490.62-18.75L490.62-18.75Q495.62-31.68 498.98-38.88L498.98-38.88L498.98-38.88Q502.34-46.08 504.64-46.08L504.64-46.08L504.64-46.08Q505.15-46.08 505.54-45.66L505.54-45.66L505.54-45.66Q505.92-45.25 505.92-44.61L505.92-44.61L505.92-44.61Q505.92-43.65 504.90-41.31L504.90-41.31L504.90-41.31Q503.87-38.98 501.57-34.11L501.57-34.11L501.57-34.11Q496.83-24.26 494.02-17.06L494.02-17.06L494.02-17.06Q491.20-9.86 491.20-4.48L491.20-4.48L491.20-4.48Q491.20-2.37 491.42-1.63L491.42-1.63L491.42-1.63Q491.65-0.90 492.67-0.90L492.67-0.90L492.67-0.90Q494.02-0.90 495.84-2.08L495.84-2.08L495.84-2.08Q497.66-3.26 499.46-5.41L499.46-5.41L499.46-5.41Q501.25-7.55 502.53-10.37L502.53-10.37L503.30-9.79L503.30-9.79Q502.08-6.59 499.97-3.97L499.97-3.97L499.97-3.97Q497.86-1.34 495.46 0.16L495.46 0.16L495.46 0.16Q493.06 1.66 490.88 1.66L490.88 1.66L490.88 1.66Q488.70 1.66 487.68 0.26L487.68 0.26L487.68 0.26Q486.66-1.15 486.66-3.14L486.66-3.14L486.66-3.14Q486.66-5.31 487.87-9.98L487.87-9.98L487.87-9.98Q484.61-4.61 481.12-1.34L481.12-1.34L481.12-1.34Q477.63 1.92 474.82 1.92L474.82 1.92ZM504.32 2.43L504.32 2.43Q503.17 2.43 502.43 0.45L502.43 0.45L502.43 0.45Q501.70-1.54 501.70-4.22L501.70-4.22L501.70-4.22Q501.70-10.11 505.31-20.10L505.31-20.10L505.31-20.10Q508.93-30.08 513.54-37.89L513.54-37.89L513.54-37.89Q518.14-45.70 520.83-45.70L520.83-45.70L520.83-45.70Q521.86-45.70 522.40-44.45L522.40-44.45L522.40-44.45Q522.94-43.20 522.94-41.66L522.94-41.66L522.94-41.66Q522.94-38.66 520.80-33.66L520.80-33.66L520.80-33.66Q518.66-28.67 515.23-24.06L515.23-24.06L515.23-24.06Q511.81-19.46 508.22-17.28L508.22-17.28L508.22-17.28Q507.07-14.59 506.46-11.04L506.46-11.04L506.46-11.04Q505.86-7.49 505.86-4.67L505.86-4.67L505.86-4.67Q505.86-3.65 505.98-2.50L505.98-2.50L505.98-2.50Q508.54-9.92 511.78-14.50L511.78-14.50L511.78-14.50Q515.01-19.07 518.98-19.07L518.98-19.07L518.98-19.07Q521.41-19.07 522.62-17.38L522.62-17.38L522.62-17.38Q523.84-15.68 523.84-13.31L523.84-13.31L523.84-13.31Q523.84-11.90 523.49-10.62L523.49-10.62L523.49-10.62Q523.14-9.34 522.37-7.30L522.37-7.30L522.37-7.30Q521.73-5.57 521.41-4.54L521.41-4.54L521.41-4.54Q521.09-3.52 521.09-2.56L521.09-2.56L521.09-2.56Q521.09-1.34 521.60-0.74L521.60-0.74L521.60-0.74Q522.11-0.13 523.01-0.13L523.01-0.13L523.01-0.13Q525.18-0.13 528.13-3.17L528.13-3.17L528.13-3.17Q531.07-6.21 532.99-10.37L532.99-10.37L533.82-9.60L533.82-9.60Q531.71-4.74 528.42-1.60L528.42-1.60L528.42-1.60Q525.12 1.54 521.54 1.54L521.54 1.54L521.54 1.54Q519.42 1.54 518.27 0.42L518.27 0.42L518.27 0.42Q517.12-0.70 517.12-2.50L517.12-2.50L517.12-2.50Q517.12-3.90 518.08-7.04L518.08-7.04L518.08-7.04Q519.10-10.50 519.10-12.16L519.10-12.16L519.10-12.16Q519.10-13.76 518.43-14.50L518.43-14.50L518.43-14.50Q517.76-15.23 516.67-15.23L516.67-15.23L516.67-15.23Q514.30-15.23 512.54-12.45L512.54-12.45L512.54-12.45Q510.78-9.66 508.74-4.61L508.74-4.61L508.74-4.61Q507.20-0.90 506.30 0.77L506.30 0.77L506.30 0.77Q505.41 2.43 504.32 2.43L504.32 2.43ZM509.06-19.78L509.06-19.78Q511.81-21.95 514.53-26.08L514.53-26.08L514.53-26.08Q517.25-30.21 519.01-34.27L519.01-34.27L519.01-34.27Q520.77-38.34 520.77-40L520.77-40L520.77-40Q520.77-40.51 520.51-40.51L520.51-40.51L520.51-40.51Q519.81-40.51 517.60-37.34L517.60-37.34L517.60-37.34Q515.39-34.18 512.96-29.38L512.96-29.38L512.96-29.38Q510.53-24.58 509.06-19.78L509.06-19.78ZM534.85 3.01L534.85 3.01Q532.74 3.01 531.42 1.63L531.42 1.63L531.42 1.63Q530.11 0.26 530.11-2.30L530.11-2.30L530.11-2.30Q530.11-6.08 532.83-10.75L532.83-10.75L532.83-10.75Q535.55-15.42 539.71-18.69L539.71-18.69L539.71-18.69Q543.87-21.95 547.84-21.95L547.84-21.95L547.84-21.95Q550.34-21.95 552-20.61L552-20.61L552-20.61Q553.66-19.26 553.66-17.15L553.66-17.15L553.66-17.15Q553.66-15.68 552.83-15.04L552.83-15.04L552.83-15.04Q552-14.40 550.53-14.40L550.53-14.40L550.53-14.40Q550.85-15.55 550.85-16.64L550.85-16.64L550.85-16.64Q550.85-18.24 550.08-19.23L550.08-19.23L550.08-19.23Q549.31-20.22 547.71-20.22L547.71-20.22L547.71-20.22Q544.90-20.22 541.79-17.09L541.79-17.09L541.79-17.09Q538.69-13.95 536.61-9.60L536.61-9.60L536.61-9.60Q534.53-5.25 534.53-2.11L534.53-2.11L534.53-2.11Q534.53 0.38 536.26 0.38L536.26 0.38L536.26 0.38Q538.82 0.38 542.27-3.68L542.27-3.68L542.27-3.68Q545.73-7.74 549.70-13.57L549.70-13.57L549.70-13.57Q550.53-13.44 551.39-13.02L551.39-13.02L551.39-13.02Q552.26-12.61 552.26-11.97L552.26-11.97L552.26-11.97Q552.26-11.46 551.65-10.34L551.65-10.34L551.65-10.34Q551.04-9.22 550.91-9.02L550.91-9.02L550.91-9.02Q549.82-7.17 549.18-5.73L549.18-5.73L549.18-5.73Q548.54-4.29 548.54-3.07L548.54-3.07L548.54-3.07Q548.54-1.98 549.09-1.12L549.09-1.12L549.09-1.12Q549.63-0.26 550.72-0.26L550.72-0.26L550.72-0.26Q552.58-0.26 555.39-2.91L555.39-2.91L555.39-2.91Q558.21-5.57 560.96-10.37L560.96-10.37L561.60-9.73L561.60-9.73Q560.26-6.34 558.14-3.68L558.14-3.68L558.14-3.68Q556.03-1.02 553.60 0.45L553.60 0.45L553.60 0.45Q551.17 1.92 548.93 1.92L548.93 1.92L548.93 1.92Q546.69 1.92 545.50 0.61L545.50 0.61L545.50 0.61Q544.32-0.70 544.32-2.56L544.32-2.56L544.32-2.56Q544.32-3.39 544.51-4.42L544.51-4.42L544.51-4.42Q541.63-0.58 539.36 1.22L539.36 1.22L539.36 1.22Q537.09 3.01 534.85 3.01L534.85 3.01ZM580.35 1.28L580.35 1.28Q578.18 1.28 577.02 0.16L577.02 0.16L577.02 0.16Q575.87-0.96 575.87-2.82L575.87-2.82L575.87-2.82Q575.87-3.65 576.16-4.77L576.16-4.77L576.16-4.77Q576.45-5.89 576.77-6.98L576.77-6.98L576.77-6.98Q577.15-8.13 577.44-9.41L577.44-9.41L577.44-9.41Q577.73-10.69 577.73-11.71L577.73-11.71L577.73-11.71Q577.73-14.85 575.17-14.85L575.17-14.85L575.17-14.85Q572.74-14.85 570.08-12.29L570.08-12.29L570.08-12.29Q567.42-9.73 565.34-6.59L565.34-6.59L565.34-6.59Q563.26-3.46 560.64 0.96L560.64 0.96L560.64 0.96Q559.55 0.96 558.66 0.61L558.66 0.61L558.66 0.61Q557.76 0.26 557.25-0.45L557.25-0.45L557.25-0.45Q557.25-0.77 558.08-2.75L558.08-2.75L558.08-2.75Q559.68-6.85 560.70-10.21L560.70-10.21L560.70-10.21Q561.73-13.57 561.79-16.19L561.79-16.19L561.79-16.19Q562.24-16.70 563.07-17.12L563.07-17.12L563.07-17.12Q563.90-17.54 564.74-17.54L564.74-17.54L564.74-17.54Q566.46-17.54 566.46-15.87L566.46-15.87L566.46-15.87Q566.46-14.91 565.89-12.51L565.89-12.51L565.89-12.51Q565.31-10.11 564.42-7.42L564.42-7.42L564.42-7.42Q567.49-12.16 570.94-15.42L570.94-15.42L570.94-15.42Q574.40-18.69 577.73-18.69L577.73-18.69L577.73-18.69Q580.10-18.69 581.28-16.99L581.28-16.99L581.28-16.99Q582.46-15.30 582.46-12.93L582.46-12.93L582.46-12.93Q582.46-11.52 582.11-10.24L582.11-10.24L582.11-10.24Q581.76-8.96 581.06-7.30L581.06-7.30L581.06-7.30Q580.48-5.89 580.16-4.86L580.16-4.86L580.16-4.86Q579.84-3.84 579.84-2.82L579.84-2.82L579.84-2.82Q579.84-0.38 581.76-0.38L581.76-0.38L581.76-0.38Q583.94-0.38 586.27-3.26L586.27-3.26L586.27-3.26Q588.61-6.14 590.72-10.37L590.72-10.37L591.42-9.54L591.42-9.54Q586.82 1.28 580.35 1.28L580.35 1.28ZM635.84 7.74L635.84 7.74Q633.60 7.74 630.21 3.49L630.21 3.49L630.21 3.49Q626.82-0.77 623.46-6.75L623.46-6.75L623.46-6.75Q620.10-12.74 617.98-17.73L617.98-17.73L617.98-17.73Q616.51-12.80 614.53-5.57L614.53-5.57L614.53-5.57Q613.44-1.47 611.39 5.57L611.39 5.57L611.39 5.57Q609.73 5.57 608.45 4.64L608.45 4.64L608.45 4.64Q607.17 3.71 607.17 2.37L607.17 2.37L607.17 2.37Q607.17 1.41 608.06-1.15L608.06-1.15L608.06-1.15Q612.35-14.46 615.94-24.10L615.94-24.10L615.94-24.10Q619.52-33.73 624.26-44.48L624.26-44.48L624.26-44.48Q621.82-44.10 620.06-43.36L620.06-43.36L620.06-43.36Q618.30-42.62 616.26-41.54L616.26-41.54L616.26-41.54Q615.04-40.83 614.72-40.83L614.72-40.83L614.72-40.83Q614.27-40.83 613.50-41.47L613.50-41.47L613.50-41.47Q612.74-42.11 612.74-42.56L612.74-42.56L612.74-42.56Q620.93-46.08 627.14-46.08L627.14-46.08L627.14-46.08Q631.10-46.08 634.82-44.80L634.82-44.80L634.82-44.80Q638.53-43.52 640.93-40.83L640.93-40.83L640.93-40.83Q643.33-38.14 643.33-34.11L643.33-34.11L643.33-34.11Q643.33-28.42 638.75-25.31L638.75-25.31L638.75-25.31Q634.18-22.21 628.77-21.22L628.77-21.22L628.77-21.22Q623.36-20.22 619.46-20.22L619.46-20.22L619.46-20.22Q620.10-19.07 620.64-18.11L620.64-18.11L620.64-18.11Q621.18-17.15 621.63-16.38L621.63-16.38L621.63-16.38Q624.38-11.46 626.46-8.26L626.46-8.26L626.46-8.26Q628.54-5.06 631.65-1.50L631.65-1.50L631.65-1.50Q634.75 2.05 639.10 5.63L639.10 5.63L639.10 5.63Q638.72 6.46 637.73 7.10L637.73 7.10L637.73 7.10Q636.74 7.74 635.84 7.74L635.84 7.74ZM619.01-21.25L619.01-21.25Q624.06-21.57 628.61-23.17L628.61-23.17L628.61-23.17Q633.15-24.77 636.10-27.84L636.10-27.84L636.10-27.84Q639.04-30.91 639.04-35.46L639.04-35.46L639.04-35.46Q639.04-40.32 635.74-42.53L635.74-42.53L635.74-42.53Q632.45-44.74 627.58-44.74L627.58-44.74L627.58-44.74Q623.74-37.06 619.01-21.25L619.01-21.25ZM649.98 2.82L649.98 2.82Q646.21 2.82 644.19 0.74L644.19 0.74L644.19 0.74Q642.18-1.34 642.18-4.61L642.18-4.61L642.18-4.61Q642.18-8.38 644.67-12.74L644.67-12.74L644.67-12.74Q647.17-17.09 650.98-20.06L650.98-20.06L650.98-20.06Q654.78-23.04 658.43-23.04L658.43-23.04L658.43-23.04Q662.40-23.04 662.40-19.14L662.40-19.14L662.40-19.14Q662.40-16 660.03-13.28L660.03-13.28L660.03-13.28Q657.66-10.56 653.95-8.83L653.95-8.83L653.95-8.83Q650.24-7.10 646.53-6.72L646.53-6.72L646.53-6.72Q646.27-5.63 646.27-4.42L646.27-4.42L646.27-4.42Q646.27-2.11 647.42-0.58L647.42-0.58L647.42-0.58Q648.58 0.96 651.33 0.96L651.33 0.96L651.33 0.96Q655.23 0.96 659.20-2.30L659.20-2.30L659.20-2.30Q663.17-5.57 665.66-10.37L665.66-10.37L666.43-9.79L666.43-9.79Q663.87-4.10 659.33-0.64L659.33-0.64L659.33-0.64Q654.78 2.82 649.98 2.82L649.98 2.82ZM646.85-7.94L646.85-7.94Q649.54-8.90 652.48-10.62L652.48-10.62L652.48-10.62Q655.42-12.35 657.50-14.69L657.50-14.69L657.50-14.69Q659.58-17.02 659.58-19.58L659.58-19.58L659.58-19.58Q659.58-20.35 659.30-20.70L659.30-20.70L659.30-20.70Q659.01-21.06 658.24-21.06L658.24-21.06L658.24-21.06Q656.26-21.06 653.92-19.07L653.92-19.07L653.92-19.07Q651.58-17.09 649.63-14.02L649.63-14.02L649.63-14.02Q647.68-10.94 646.85-7.94L646.85-7.94ZM668.16 1.92L668.16 1.92Q666.30 1.92 664.83 0.54L664.83 0.54L664.83 0.54Q663.36-0.83 663.36-3.46L663.36-3.46L663.36-3.46Q663.36-6.98 666.05-11.68L666.05-11.68L666.05-11.68Q668.74-16.38 672.77-19.71L672.77-19.71L672.77-19.71Q676.80-23.04 680.58-23.04L680.58-23.04L680.58-23.04Q683.39-23.04 683.39-21.06L683.39-21.06L683.39-21.06Q683.39-20.80 683.26-20.16L683.26-20.16L683.26-20.16Q682.62-21.12 680.83-21.12L680.83-21.12L680.83-21.12Q677.63-21.12 674.62-18.08L674.62-18.08L674.62-18.08Q671.62-15.04 669.73-10.94L669.73-10.94L669.73-10.94Q667.84-6.85 667.84-4.22L667.84-4.22L667.84-4.22Q667.84-2.82 668.45-1.98L668.45-1.98L668.45-1.98Q669.06-1.15 670.14-1.15L670.14-1.15L670.14-1.15Q671.87-1.15 674.37-3.36L674.37-3.36L674.37-3.36Q676.86-5.57 679.42-9.60L679.42-9.60L679.42-9.60Q681.98-13.63 683.97-18.75L683.97-18.75L683.97-18.75Q688.96-31.68 692.32-38.88L692.32-38.88L692.32-38.88Q695.68-46.08 697.98-46.08L697.98-46.08L697.98-46.08Q698.50-46.08 698.88-45.66L698.88-45.66L698.88-45.66Q699.26-45.25 699.26-44.61L699.26-44.61L699.26-44.61Q699.26-43.65 698.24-41.31L698.24-41.31L698.24-41.31Q697.22-38.98 694.91-34.11L694.91-34.11L694.91-34.11Q690.18-24.26 687.36-17.06L687.36-17.06L687.36-17.06Q684.54-9.86 684.54-4.48L684.54-4.48L684.54-4.48Q684.54-2.37 684.77-1.63L684.77-1.63L684.77-1.63Q684.99-0.90 686.02-0.90L686.02-0.90L686.02-0.90Q687.36-0.90 689.18-2.08L689.18-2.08L689.18-2.08Q691.01-3.26 692.80-5.41L692.80-5.41L692.80-5.41Q694.59-7.55 695.87-10.37L695.87-10.37L696.64-9.79L696.64-9.79Q695.42-6.59 693.31-3.97L693.31-3.97L693.31-3.97Q691.20-1.34 688.80 0.16L688.80 0.16L688.80 0.16Q686.40 1.66 684.22 1.66L684.22 1.66L684.22 1.66Q682.05 1.66 681.02 0.26L681.02 0.26L681.02 0.26Q680.00-1.15 680.00-3.14L680.00-3.14L680.00-3.14Q680.00-5.31 681.22-9.98L681.22-9.98L681.22-9.98Q677.95-4.61 674.46-1.34L674.46-1.34L674.46-1.34Q670.98 1.92 668.16 1.92L668.16 1.92ZM698.43 1.92L698.43 1.92Q696.58 1.92 695.10 0.54L695.10 0.54L695.10 0.54Q693.63-0.83 693.63-3.46L693.63-3.46L693.63-3.46Q693.63-6.98 696.32-11.68L696.32-11.68L696.32-11.68Q699.01-16.38 703.04-19.71L703.04-19.71L703.04-19.71Q707.07-23.04 710.85-23.04L710.85-23.04L710.85-23.04Q713.66-23.04 713.66-21.06L713.66-21.06L713.66-21.06Q713.66-20.80 713.54-20.16L713.54-20.16L713.54-20.16Q712.90-21.12 711.10-21.12L711.10-21.12L711.10-21.12Q707.90-21.12 704.90-18.08L704.90-18.08L704.90-18.08Q701.89-15.04 700-10.94L700-10.94L700-10.94Q698.11-6.85 698.11-4.22L698.11-4.22L698.11-4.22Q698.11-2.82 698.72-1.98L698.72-1.98L698.72-1.98Q699.33-1.15 700.42-1.15L700.42-1.15L700.42-1.15Q702.14-1.15 704.64-3.36L704.64-3.36L704.64-3.36Q707.14-5.57 709.70-9.60L709.70-9.60L709.70-9.60Q712.26-13.63 714.24-18.75L714.24-18.75L714.24-18.75Q719.23-31.68 722.59-38.88L722.59-38.88L722.59-38.88Q725.95-46.08 728.26-46.08L728.26-46.08L728.26-46.08Q728.77-46.08 729.15-45.66L729.15-45.66L729.15-45.66Q729.54-45.25 729.54-44.61L729.54-44.61L729.54-44.61Q729.54-43.65 728.51-41.31L728.51-41.31L728.51-41.31Q727.49-38.98 725.18-34.11L725.18-34.11L725.18-34.11Q720.45-24.26 717.63-17.06L717.63-17.06L717.63-17.06Q714.82-9.86 714.82-4.48L714.82-4.48L714.82-4.48Q714.82-2.37 715.04-1.63L715.04-1.63L715.04-1.63Q715.26-0.90 716.29-0.90L716.29-0.90L716.29-0.90Q717.63-0.90 719.46-2.08L719.46-2.08L719.46-2.08Q721.28-3.26 723.07-5.41L723.07-5.41L723.07-5.41Q724.86-7.55 726.14-10.37L726.14-10.37L726.91-9.79L726.91-9.79Q725.70-6.59 723.58-3.97L723.58-3.97L723.58-3.97Q721.47-1.34 719.07 0.16L719.07 0.16L719.07 0.16Q716.67 1.66 714.50 1.66L714.50 1.66L714.50 1.66Q712.32 1.66 711.30 0.26L711.30 0.26L711.30 0.26Q710.27-1.15 710.27-3.14L710.27-3.14L710.27-3.14Q710.27-5.31 711.49-9.98L711.49-9.98L711.49-9.98Q708.22-4.61 704.74-1.34L704.74-1.34L704.74-1.34Q701.25 1.92 698.43 1.92L698.43 1.92ZM727.68 17.92L727.68 17.92Q725.95 17.92 724.80 17.02L724.80 17.02L724.80 17.02Q723.65 16.13 723.65 14.53L723.65 14.53L723.65 14.53Q723.65 11.97 725.28 10.02L725.28 10.02L725.28 10.02Q726.91 8.06 729.28 6.62L729.28 6.62L729.28 6.62Q731.65 5.18 736.06 2.94L736.06 2.94L736.06 2.94Q737.98-1.98 739.65-8.77L739.65-8.77L739.65-8.77Q737.34-4.99 735.04-2.82L735.04-2.82L735.04-2.82Q732.74-0.64 730.30-0.64L730.30-0.64L730.30-0.64Q728.26-0.64 726.72-1.98L726.72-1.98L726.72-1.98Q725.18-3.33 725.18-5.82L725.18-5.82L725.18-5.82Q725.18-8.13 726.21-11.46L726.21-11.46L726.21-11.46Q727.23-14.78 728.58-17.28L728.58-17.28L728.58-17.28Q729.92-19.78 730.82-19.78L730.82-19.78L730.82-19.78Q731.39-19.78 732.51-19.30L732.51-19.30L732.51-19.30Q733.63-18.82 733.63-18.30L733.63-18.30L733.63-18.30Q732.35-16.45 730.88-12.32L730.88-12.32L730.88-12.32Q729.41-8.19 729.41-5.76L729.41-5.76L729.41-5.76Q729.41-3.20 731.71-3.20L731.71-3.20L731.71-3.20Q733.44-3.20 735.78-5.57L735.78-5.57L735.78-5.57Q738.11-7.94 740.22-11.39L740.22-11.39L740.22-11.39Q740.54-12.48 740.86-14.34L740.86-14.34L740.86-14.34Q741.12-15.55 741.92-16.58L741.92-16.58L741.92-16.58Q742.72-17.60 744.13-17.60L744.13-17.60L744.13-17.60Q744.70-17.60 745.47-17.41L745.47-17.41L745.47-17.41Q745.47-15.68 744.03-10.30L744.03-10.30L744.03-10.30Q742.59-4.93 740.48 0.51L740.48 0.51L740.48 0.51Q743.68-0.77 746.50-3.49L746.50-3.49L746.50-3.49Q749.31-6.21 751.04-10.37L751.04-10.37L751.87-9.73L751.87-9.73Q749.50-2.24 739.78 2.24L739.78 2.24L739.78 2.24Q736.96 9.15 733.86 13.54L733.86 13.54L733.86 13.54Q730.75 17.92 727.68 17.92L727.68 17.92ZM727.36 15.87L727.36 15.87Q728.06 15.87 729.34 14.69L729.34 14.69L729.34 14.69Q730.62 13.50 732.22 10.94L732.22 10.94L732.22 10.94Q733.82 8.38 735.42 4.48L735.42 4.48L735.42 4.48Q732.03 6.27 730.08 7.52L730.08 7.52L730.08 7.52Q728.13 8.77 726.88 10.37L726.88 10.37L726.88 10.37Q725.63 11.97 725.63 13.95L725.63 13.95L725.63 13.95Q725.63 14.59 726.08 15.23L726.08 15.23L726.08 15.23Q726.53 15.87 727.36 15.87L727.36 15.87Z" fill="#444"></path></g></g><style>text {
  font-size: 64px;
  font-family: Arial Black;
  dominant-baseline: central;
  text-anchor: middle;
}</style></svg>